<svg id="Layer_1" data-name="Layer 1" xmlns="http://www.w3.org/2000/svg" viewBox="0 0 545.29 211.23"><defs><style>.cls-1{fill:#fff;}</style></defs><title>Artboard 1</title><g id="Combination_Mark_H_" data-name="Combination Mark (H)"><g id="Word_Mark" data-name="Word Mark"><g id="Mind"><path class="cls-1" d="M127.71,72.09h11.91l15.15,37.17,1.82,5.68,1.82-5.68,15-37.17H185v53.66h-8.84l.24-43.48L172.53,93.8l-13,32H153.2l-13.1-32-3.79-11.21.24,43.24h-8.84Z"/><path class="cls-1" d="M192,68.94h8.45v9.55H192Zm0,14.75h8.45v42.06H192Z"/><path class="cls-1" d="M207.79,83.69h8.45V89.3c2.84-4.5,7.26-6.71,12.7-6.71,8.76,0,14.21,5.13,14.21,15.07v28.09h-8.37V99.4c0-6.08-2.68-9.79-8.44-9.79-6.31,0-10.1,5.61-10.1,11.45v24.69h-8.45Z"/><path class="cls-1" d="M248.75,104.76c0-14.28,6.86-22.17,17.83-22.17A13.27,13.27,0,0,1,278,88.43V68.94h8.45v56.81H278v-5.12a13.38,13.38,0,0,1-11.44,6.15C255.45,126.78,248.75,118.49,248.75,104.76Zm29.27,0c0-9.62-3.78-15.07-10.33-15.07-6.71,0-10.34,5.37-10.34,15.07,0,9.55,3.79,14.92,10.34,14.92S278,114.47,278,104.76Z"/></g><g id="Swap"><path class="cls-1" d="M346.12,110.29c0,10.57-8.6,16.49-20.36,16.49-11.92,0-20.12-5.44-22.33-16.65h9.23c1.5,6.08,6,9.39,13.18,9.39,7.34,0,11.2-3.23,11.2-8,0-15.15-32.51-3.87-32.51-25.41,0-8,6.79-15,19-15,10.58,0,19.25,5.05,21.15,16.81h-9.39c-1.5-6.63-5.68-9.55-12-9.55-6.16,0-9.71,2.76-9.71,7C313.61,99.48,346.12,88.35,346.12,110.29Z"/><path class="cls-1" d="M382.19,95.85l-.87-4.74-.94,4.74L372,125.75H361.6L349.44,83.69h9.08l7.73,31.25,1,4.74,1.1-4.74,8.84-31.25h8.92l8.91,31.25.95,4.5.95-4.5,7.73-31.25h8.68l-12.23,42.06H390.56Z"/><path class="cls-1" d="M418.31,97.43c1.34-9.32,7.74-14.84,18.23-14.84,11.44,0,17.13,6.71,17.13,16.49V115.5c0,5,.47,8,1.41,10.25h-8.83a19.38,19.38,0,0,1-.95-6.15,17.16,17.16,0,0,1-14.05,7.18c-8.52,0-14.36-4-14.36-12.07,0-5.76,3.16-10,9.47-12.16,5.6-1.89,11.28-2.36,18.86-2.44v-1c0-6.15-2.84-9.47-9.31-9.47-5.44,0-8.37,3-9.15,7.74Zm14.52,22.72a12.3,12.3,0,0,0,12.39-12.39v-1.89c-16.18.16-19.81,3.71-19.81,8.52C425.41,117.94,428.33,120.15,432.83,120.15Z"/><path class="cls-1" d="M462.88,143.12V83.69h8.44v5a13.41,13.41,0,0,1,11.45-6.15c11.13,0,17.83,8.29,17.83,22,0,14.28-6.87,22.17-17.83,22.17a13.3,13.3,0,0,1-11.45-5.84v22.18Zm8.44-38.51c0,9.62,3.79,15.07,10.42,15.07S492,114.31,492,104.61c0-9.55-3.79-14.92-10.26-14.92C475,89.69,471.32,95,471.32,104.61Z"/></g></g><path id="Logo_Mark" data-name="Logo Mark" class="cls-1" d="M105.6,91.82V121a1.26,1.26,0,0,1-.37.89L60.05,167.09a1.24,1.24,0,0,1-1.75,0L45.83,154.62a1.25,1.25,0,0,1,.88-2.13H57.44l0,0,0,0L71.1,123.31A1.25,1.25,0,0,0,70,121.54h-25a1.25,1.25,0,0,1-1.25-1.25V91.13a1.3,1.3,0,0,1,.37-.89L89.23,45A1.24,1.24,0,0,1,91,45l12.49,12.51a1.26,1.26,0,0,1-.89,2.14h-12l0,0L77,88.81a1.25,1.25,0,0,0,1.13,1.77h26.21A1.24,1.24,0,0,1,105.6,91.82Z"/></g></svg>